<svg width="40" height="40" viewBox="0 0 40 40" fill="none" xmlns="http://www.w3.org/2000/svg">
<path d="M10.143 39.858C8.59588 39.8408 7.06328 39.557 5.61249 39.0192C4.55307 38.6276 3.59456 38.0042 2.80703 37.1945C1.99518 36.4086 1.37084 35.4498 0.980383 34.3895C0.443036 32.9387 0.159678 31.4063 0.142744 29.8593C0.0239213 27.2876 0 26.5162 0 19.9998C0 13.4834 0.0262743 12.7148 0.141567 10.1411C0.160556 8.59473 0.444263 7.06306 0.980383 5.61249C1.37274 4.5529 1.9962 3.594 2.80546 2.80546C3.59201 1.99435 4.55098 1.37058 5.61132 0.980383C7.0621 0.44259 8.59471 0.158833 10.1419 0.141567C12.7144 0.0239213 13.4869 0 19.9998 0C26.5127 0 27.2848 0.0262743 29.8585 0.141567C31.4053 0.160422 32.9374 0.444131 34.3883 0.980383C35.4482 1.3711 36.4069 1.99464 37.1938 2.80507C38.0044 3.59222 38.6282 4.55117 39.0192 5.61132C39.5572 7.06208 39.841 8.59468 39.8584 10.1419C39.9761 12.7156 40 13.4861 40 20.0006C40 26.515 39.9761 27.2856 39.8584 29.8593C39.8398 31.4062 39.5559 32.9385 39.0192 34.3895C38.6133 35.4417 37.9915 36.3972 37.1939 37.1946C36.3963 37.992 35.4406 38.6135 34.3883 39.0192C32.9375 39.5571 31.4049 39.841 29.8577 39.8584C27.2864 39.9761 26.5135 40 19.999 40C13.4846 40 12.714 39.9773 10.1426 39.8584" fill="url(#paint0_radial_1_347)"/>
<path d="M10.143 39.858C8.59588 39.8408 7.06328 39.557 5.61249 39.0192C4.55307 38.6276 3.59456 38.0042 2.80703 37.1945C1.99518 36.4086 1.37084 35.4498 0.980383 34.3895C0.443036 32.9387 0.159678 31.4063 0.142744 29.8593C0.0239213 27.2876 0 26.5162 0 19.9998C0 13.4834 0.0262743 12.7148 0.141567 10.1411C0.160556 8.59473 0.444263 7.06306 0.980383 5.61249C1.37274 4.5529 1.9962 3.594 2.80546 2.80546C3.59201 1.99435 4.55098 1.37058 5.61132 0.980383C7.0621 0.44259 8.59471 0.158833 10.1419 0.141567C12.7144 0.0239213 13.4869 0 19.9998 0C26.5127 0 27.2848 0.0262743 29.8585 0.141567C31.4053 0.160422 32.9374 0.444131 34.3883 0.980383C35.4482 1.3711 36.4069 1.99464 37.1938 2.80507C38.0044 3.59222 38.6282 4.55117 39.0192 5.61132C39.5572 7.06208 39.841 8.59468 39.8584 10.1419C39.9761 12.7156 40 13.4861 40 20.0006C40 26.515 39.9761 27.2856 39.8584 29.8593C39.8398 31.4062 39.5559 32.9385 39.0192 34.3895C38.6133 35.4417 37.9915 36.3972 37.1939 37.1946C36.3963 37.992 35.4406 38.6135 34.3883 39.0192C32.9375 39.5571 31.4049 39.841 29.8577 39.8584C27.2864 39.9761 26.5135 40 19.999 40C13.4846 40 12.714 39.9773 10.1426 39.8584" fill="url(#paint1_radial_1_347)"/>
<path d="M15.0889 20.0849C15.089 19.1052 15.3795 18.1476 15.9239 17.333C16.4683 16.5185 17.2419 15.8837 18.1471 15.5089C19.0522 15.134 20.0482 15.0361 21.009 15.2273C21.9699 15.4185 22.8524 15.8904 23.5451 16.5832C24.2377 17.276 24.7094 18.1587 24.9004 19.1196C25.0914 20.0805 24.9932 21.0764 24.6181 21.9815C24.2431 22.8865 23.6081 23.66 22.7934 24.2042C21.9788 24.7484 21.0211 25.0387 20.0414 25.0386C18.7277 25.0384 17.468 24.5164 16.5392 23.5874C15.6105 22.6584 15.0888 21.3985 15.0889 20.0849ZM12.4109 20.0849C12.4109 21.5941 12.8584 23.0694 13.6968 24.3242C14.5353 25.579 15.727 26.557 17.1213 27.1346C18.5156 27.7121 20.0498 27.8632 21.53 27.5688C23.0102 27.2744 24.3698 26.5476 25.437 25.4805C26.5041 24.4133 27.2308 23.0537 27.5253 21.5735C27.8197 20.0934 27.6686 18.5591 27.091 17.1648C26.5135 15.7705 25.5355 14.5788 24.2807 13.7404C23.0258 12.9019 21.5505 12.4544 20.0414 12.4544C19.0393 12.4543 18.047 12.6517 17.1212 13.0351C16.1954 13.4186 15.3542 13.9806 14.6457 14.6892C13.9371 15.3978 13.375 16.239 12.9916 17.1648C12.6081 18.0906 12.4108 19.0828 12.4109 20.0849ZM26.1907 12.152C26.1906 12.5047 26.295 12.8495 26.4908 13.1428C26.6866 13.4361 26.965 13.6648 27.2907 13.7999C27.6165 13.935 27.975 13.9705 28.3209 13.9018C28.6669 13.8332 28.9847 13.6635 29.2341 13.4142C29.4836 13.165 29.6536 12.8473 29.7225 12.5015C29.7915 12.1556 29.7563 11.7971 29.6215 11.4712C29.4867 11.1453 29.2583 10.8667 28.9651 10.6706C28.672 10.4746 28.3273 10.3699 27.9746 10.3697C27.5019 10.3699 27.0486 10.5577 26.7143 10.8919C26.3799 11.2261 26.1919 11.6793 26.1915 12.152M14.0387 32.1809C13.0964 32.1705 12.1629 31.9981 11.2791 31.6711C10.6382 31.424 10.0561 31.0455 9.57023 30.5599C9.08442 30.0743 8.70566 29.4923 8.45835 28.8515C8.1312 27.9677 7.95875 27.0342 7.94855 26.0919C7.87639 24.5256 7.86228 24.0551 7.86228 20.0869C7.86228 16.1187 7.87796 15.6493 7.94855 14.0814C7.95998 13.1392 8.1324 12.2059 8.45835 11.3218C8.70538 10.6807 9.08402 10.0984 9.56986 9.6126C10.0557 9.12676 10.638 8.74812 11.2791 8.50109C12.1629 8.17396 13.0964 8.0015 14.0387 7.99129C15.6049 7.91914 16.0755 7.90502 20.0422 7.90502C24.0088 7.90502 24.4798 7.92031 26.0476 7.99169C26.9898 8.00312 27.9231 8.17553 28.8072 8.50148C29.4483 8.74853 30.0306 9.12718 30.5164 9.61302C31.0022 10.0989 31.3809 10.6811 31.6279 11.3222C31.955 12.206 32.1275 13.1395 32.1377 14.0818C32.2099 15.6504 32.224 16.1187 32.224 20.0873C32.224 24.0558 32.2095 24.5249 32.1377 26.0927C32.1268 27.0349 31.9543 27.9683 31.6279 28.8523C31.3806 29.4931 31.0019 30.0751 30.516 30.5607C30.0302 31.0463 29.4481 31.4248 28.8072 31.6718C27.9234 31.999 26.9899 32.1714 26.0476 32.1816C24.4813 32.2538 24.0107 32.2679 20.0422 32.2679C16.0736 32.2679 15.6046 32.2534 14.0387 32.1816M13.9156 5.31563C12.6826 5.33988 11.4626 5.57325 10.3077 6.00582C9.3205 6.38753 8.42391 6.97133 7.67546 7.71978C6.92701 8.46822 6.34322 9.36481 5.96151 10.3521C5.529 11.507 5.29562 12.7269 5.27132 13.9599C5.19799 15.5442 5.18152 16.0508 5.18152 20.0865C5.18152 24.1221 5.19838 24.6284 5.27132 26.2131C5.29562 27.4461 5.52899 28.666 5.96151 29.8209C6.34324 30.8081 6.92704 31.7047 7.67549 32.4531C8.42394 33.2016 9.32051 33.7854 10.3077 34.1671C11.4627 34.5995 12.6826 34.8329 13.9156 34.8573C15.5006 34.9295 16.0065 34.9471 20.0422 34.9471C24.0778 34.9471 24.5841 34.9302 26.1688 34.8573C27.4017 34.833 28.6217 34.5996 29.7766 34.1671C30.7638 33.7854 31.6604 33.2016 32.4088 32.4531C33.1573 31.7047 33.7411 30.8081 34.1228 29.8209C34.5559 28.6661 34.7893 27.4461 34.813 26.2131C34.8852 24.6276 34.9016 24.1221 34.9016 20.0865C34.9016 16.0508 34.8848 15.5446 34.813 13.9599C34.7888 12.7269 34.5554 11.5069 34.1228 10.3521C33.7411 9.365 33.1574 8.46855 32.4092 7.72012C31.661 6.9717 30.7647 6.3878 29.7777 6.00582C28.6229 5.57297 27.403 5.33959 26.1699 5.31563C24.5853 5.24308 24.079 5.22583 20.0441 5.22583C16.0093 5.22583 15.5018 5.24269 13.9163 5.31563" fill="white"/>
<defs>
<radialGradient id="paint0_radial_1_347" cx="0" cy="0" r="1" gradientUnits="userSpaceOnUse" gradientTransform="translate(2.5886 39.1235) scale(50.7846)">
<stop offset="0.09" stop-color="#FA8F21"/>
<stop offset="0.78" stop-color="#D82D7E"/>
</radialGradient>
<radialGradient id="paint1_radial_1_347" cx="0" cy="0" r="1" gradientUnits="userSpaceOnUse" gradientTransform="translate(27.7064 37.8388) scale(44.6909)">
<stop offset="0.64" stop-color="#8C3AAA" stop-opacity="0"/>
<stop offset="1" stop-color="#8C3AAA"/>
</radialGradient>
</defs>
</svg>
