<svg width="40" height="40" viewBox="0 0 40 40" fill="none" xmlns="http://www.w3.org/2000/svg">
<path d="M20 40C31.0457 40 40 31.0457 40 20C40 8.9543 31.0457 0 20 0C8.9543 0 0 8.9543 0 20C0 31.0457 8.9543 40 20 40Z" fill="#0177B5"/>
<path d="M28.75 10H11.25C10.9185 10 10.6005 10.1317 10.3661 10.3661C10.1317 10.6005 10 10.9185 10 11.25V28.75C10 29.0815 10.1317 29.3995 10.3661 29.6339C10.6005 29.8683 10.9185 30 11.25 30H28.75C29.0815 30 29.3995 29.8683 29.6339 29.6339C29.8683 29.3995 30 29.0815 30 28.75V11.25C30 10.9185 29.8683 10.6005 29.6339 10.3661C29.3995 10.1317 29.0815 10 28.75 10ZM16.25 26.875H13.125V17.5H16.25V26.875ZM14.6875 16.25C14.3167 16.25 13.9541 16.14 13.6458 15.934C13.3375 15.728 13.0971 15.4351 12.9552 15.0925C12.8133 14.7499 12.7762 14.3729 12.8485 14.0092C12.9209 13.6455 13.0995 13.3114 13.3617 13.0492C13.6239 12.787 13.958 12.6084 14.3217 12.536C14.6854 12.4637 15.0624 12.5008 15.405 12.6427C15.7476 12.7846 16.0405 13.025 16.2465 13.3333C16.4525 13.6416 16.5625 14.0042 16.5625 14.375C16.5625 14.8723 16.365 15.3492 16.0133 15.7008C15.6617 16.0525 15.1848 16.25 14.6875 16.25ZM26.875 26.875H23.75V20.625C23.75 20.1062 23.05 19.6875 22.1875 19.6875C20.9375 19.6875 20.625 21.3562 20.625 21.875V26.875H17.5V17.5H20.625V19.6875C20.625 18.125 22.025 17.5 23.75 17.5C24.5788 17.5 25.3737 17.8292 25.9597 18.4153C26.5458 19.0013 26.875 19.7962 26.875 20.625V26.875Z" fill="white"/>
</svg>
