<svg width="43" height="43" viewBox="0 0 43 43" fill="none" xmlns="http://www.w3.org/2000/svg">
<circle cx="21.5" cy="21.5" r="21.5" fill="#1AA7EC"/>
<path fill-rule="evenodd" clip-rule="evenodd" d="M31.6406 28.3273C31.0232 30.2033 28.6045 31.1392 26.8765 30.9832C24.5165 30.7699 21.9485 29.518 19.9991 28.1393C17.1338 26.1127 14.4497 22.9782 12.8857 19.6516C11.7804 17.3011 11.5324 14.4105 13.1764 12.2679C13.7844 11.4759 14.4431 11.0533 15.4298 11.0039C16.8004 10.9373 16.9924 11.7213 17.4631 12.9425C17.8138 13.8558 18.2818 14.7878 18.5431 15.7344C19.0325 17.501 17.3218 17.5744 17.1058 19.0183C16.9724 19.929 18.0751 21.1502 18.5738 21.7996C19.535 23.0641 20.7122 24.1488 22.0511 25.0034C22.8111 25.4821 24.0352 26.3447 24.9045 25.8687C26.2432 25.1354 26.1178 22.8782 27.9885 23.6422C28.9579 24.0368 29.8965 24.6061 30.8219 25.1048C32.2526 25.8741 32.1859 26.6714 31.6406 28.3273C32.0486 27.09 31.2325 29.5646 31.6406 28.3273Z" fill="white"/>
</svg>
