<svg width="83" height="70" viewBox="0 0 83 70" fill="none" xmlns="http://www.w3.org/2000/svg">
<g clip-path="url(#clip0_3603_6043)">
<path d="M6.14288 51.2588V63.4726H8.92819V51.2588H6.14288Z" fill="#1D1D1D"/>
<path d="M20.5858 56.5105C20.4547 55.9938 20.2346 55.547 19.9253 55.171C19.616 54.7949 19.1966 54.5043 18.6672 54.299C18.1368 54.0937 17.4737 53.9902 16.676 53.9902C15.8906 53.9902 15.141 54.0463 14.4263 54.1576C13.7125 54.2697 13.1289 54.3904 12.6772 54.5189V63.4726H15.3376V56.3173C15.5036 56.294 15.694 56.2733 15.9089 56.2552C16.123 56.237 16.3248 56.2284 16.5153 56.2284C17.1339 56.2284 17.5567 56.4052 17.783 56.758C18.0093 57.1099 18.122 57.7093 18.122 58.5554V63.4726H20.7824V58.238C20.7824 57.6032 20.7168 57.028 20.5858 56.5105Z" fill="#1D1D1D"/>
<path d="M26.9235 53.7436C26.9235 53.4969 26.9506 53.2683 27.0039 53.0561C27.0572 52.8448 27.1472 52.6629 27.2712 52.5102C27.397 52.3575 27.5691 52.2368 27.7893 52.1488C28.0095 52.0608 28.2803 52.0168 28.6018 52.0168C28.8395 52.0168 29.0981 52.0427 29.3785 52.0953C29.6581 52.1488 29.9167 52.2281 30.1552 52.3334L30.6725 50.2366C30.4462 50.1426 30.1255 50.0452 29.7088 49.946C29.292 49.8459 28.8342 49.7959 28.3336 49.7959C26.989 49.7959 25.9738 50.1487 25.2897 50.8533C24.6056 51.558 24.2631 52.5102 24.2631 53.7082V63.4726H26.9235V56.3871H30.2085V54.2024H26.9235V53.7436Z" fill="#1D1D1D"/>
<path d="M41.1698 56.8281C40.9444 56.2286 40.6281 55.718 40.2236 55.2945C39.819 54.8719 39.3341 54.5433 38.7689 54.3078C38.2036 54.0732 37.5815 53.9551 36.9035 53.9551C36.2369 53.9551 35.621 54.0732 35.0557 54.3078C34.4904 54.5433 34.002 54.8719 33.5914 55.2945C33.1808 55.718 32.8592 56.2286 32.6277 56.8281C32.3953 57.4275 32.2791 58.0916 32.2791 58.8196C32.2791 59.5484 32.3927 60.2151 32.6181 60.8197C32.8444 61.4252 33.1598 61.9418 33.5652 62.3713C33.9697 62.8 34.4546 63.1321 35.0199 63.3667C35.5851 63.6021 36.2125 63.7194 36.9035 63.7194C37.6051 63.7194 38.2394 63.6021 38.8047 63.3667C39.37 63.1321 39.8549 62.8 40.2594 62.3713C40.6639 61.9418 40.9741 61.4252 41.1881 60.8197C41.4022 60.2151 41.5096 59.5484 41.5096 58.8196C41.5096 58.0916 41.3961 57.4275 41.1698 56.8281ZM38.3049 60.7498C37.9773 61.2251 37.5099 61.4631 36.9035 61.4631C36.2963 61.4631 35.8263 61.2251 35.4925 60.7498C35.1597 60.2737 34.9928 59.6303 34.9928 58.8196C34.9928 58.0088 35.1597 57.3714 35.4925 56.9074C35.8263 56.4434 36.2963 56.2114 36.9035 56.2114C37.5099 56.2114 37.9773 56.4434 38.3049 56.9074C38.6317 57.3714 38.796 58.0088 38.796 58.8196C38.796 59.6303 38.6317 60.2737 38.3049 60.7498Z" fill="#1D1D1D"/>
<path d="M52.5512 56.5105C52.4263 55.9938 52.2123 55.547 51.9091 55.171C51.605 54.7949 51.2005 54.5043 50.6947 54.299C50.1888 54.0937 49.5545 53.9902 48.7935 53.9902C48.5314 53.9902 48.2606 54.017 47.981 54.0696C47.7014 54.1222 47.4716 54.1783 47.2934 54.2369V49.7959L44.6339 50.2185V63.4726H47.2934V56.4225C47.4603 56.3759 47.6472 56.3319 47.8561 56.2905C48.064 56.2491 48.2868 56.2284 48.5253 56.2284C49.1203 56.2284 49.5283 56.4052 49.7485 56.758C49.9686 57.1099 50.0787 57.7093 50.0787 58.5554V63.4726H52.7391V58.238C52.7391 57.6032 52.6762 57.028 52.5512 56.5105Z" fill="#1D1D1D"/>
<path d="M64.664 56.8281C64.4386 56.2286 64.1223 55.718 63.7178 55.2945C63.3133 54.8719 62.8284 54.5433 62.2631 54.3078C61.6978 54.0732 61.0758 53.9551 60.3978 53.9551C59.7312 53.9551 59.1152 54.0732 58.5499 54.3078C57.9847 54.5433 57.4963 54.8719 57.0857 55.2945C56.675 55.718 56.3535 56.2286 56.122 56.8281C55.8896 57.4275 55.7734 58.0916 55.7734 58.8196C55.7734 59.5484 55.887 60.2151 56.1124 60.8197C56.3387 61.4252 56.6541 61.9418 57.0594 62.3713C57.464 62.8 57.9488 63.1321 58.5141 63.3667C59.0794 63.6021 59.7067 63.7194 60.3978 63.7194C61.0994 63.7194 61.7337 63.6021 62.2989 63.3667C62.8642 63.1321 63.3491 62.8 63.7536 62.3713C64.1581 61.9418 64.4683 61.4252 64.6823 60.8197C64.8964 60.2151 65.0039 59.5484 65.0039 58.8196C65.0039 58.0916 64.8903 57.4275 64.664 56.8281ZM61.7992 60.7498C61.4715 61.2251 61.0041 61.4631 60.3978 61.4631C59.7906 61.4631 59.3205 61.2251 58.9868 60.7498C58.6539 60.2737 58.487 59.6303 58.487 58.8196C58.487 58.0088 58.6539 57.3714 58.9868 56.9074C59.3205 56.4434 59.7906 56.2114 60.3978 56.2114C61.0041 56.2114 61.4715 56.4434 61.7992 56.9074C62.1259 57.3714 62.2893 58.0088 62.2893 58.8196C62.2893 59.6303 62.1259 60.2737 61.7992 60.7498Z" fill="#1D1D1D"/>
<path d="M76.5898 56.8546C76.4116 56.2612 76.1495 55.7523 75.8044 55.3297C75.4593 54.9071 75.0312 54.581 74.5192 54.3516C74.0072 54.1222 73.4183 54.0075 72.7517 54.0075C72.383 54.0075 72.0379 54.0437 71.7164 54.1136C71.3949 54.1843 71.0856 54.2844 70.7877 54.4137V49.7959L68.1282 50.2185V63.1724C68.3658 63.2431 68.6393 63.3113 68.9494 63.3751C69.2587 63.4406 69.5829 63.4958 69.9218 63.5424C70.2608 63.5899 70.6059 63.6278 70.9572 63.6571C71.3084 63.6865 71.6448 63.7011 71.9663 63.7011C72.7395 63.7011 73.4306 63.5873 74.0369 63.3578C74.6441 63.1284 75.1552 62.8024 75.5728 62.3798C75.9887 61.9563 76.3076 61.4457 76.5278 60.8462C76.7479 60.2468 76.858 59.5775 76.858 58.8375C76.858 58.1087 76.768 57.448 76.5898 56.8546ZM73.5904 60.7229C73.2218 61.2163 72.674 61.4629 71.9479 61.4629C71.7103 61.4629 71.4901 61.4543 71.2874 61.4371C71.0856 61.419 70.9187 61.3991 70.7877 61.375V56.5993C70.9545 56.4932 71.1721 56.4052 71.4394 56.3345C71.7077 56.2638 71.9776 56.2284 72.252 56.2284C73.5136 56.2284 74.1444 57.0745 74.1444 58.7668C74.1444 59.5775 73.9591 60.2296 73.5904 60.7229Z" fill="#1D1D1D"/>
<path d="M60.32 12.0418C60.3192 8.85829 57.7042 6.27941 54.4803 6.28027L27.1262 6.29062C23.9023 6.29149 21.2891 8.87295 21.2908 12.0556L21.3004 39.0596C21.3013 42.2422 23.9163 44.8211 27.141 44.8202L54.4943 44.8107C57.7182 44.809 60.3314 42.2284 60.3305 39.0449L60.32 12.0418ZM42.6777 14.4878H46.4136V18.175H42.6777V14.4878ZM27.736 14.4878H31.4719V18.175H27.736V14.4878ZM38.9427 36.6127H35.2069V32.9255H38.9427V36.6127ZM53.8845 36.6127H50.1486V32.9246H53.8845V36.6127ZM53.8845 29.2383H46.4136V36.6127H42.6777V25.5503H38.9427V29.2599H35.2069V25.5494H31.4719V36.6127H27.7369V21.8622H35.2069V14.4878H38.9427V21.8631H46.4136V25.5503H50.1486V14.4878H53.8845V29.2383Z" fill="#1AA7EC"/>
</g>
<defs>
<clipPath id="clip0_3603_6043">
<rect width="83" height="69" fill="white" transform="translate(0 0.5)"/>
</clipPath>
</defs>
</svg>
